<?xml version="1.0" encoding="UTF-8"?>
<svg width="21px" height="17px" viewBox="0 0 21 17" version="1.1" xmlns="http://www.w3.org/2000/svg" xmlns:xlink="http://www.w3.org/1999/xlink">
    <title>logo</title>
    <g id="Page-1" stroke="none" stroke-width="1" fill="none" fill-rule="evenodd">
        <g id="logo" fill="white" transform="translate(0.000000, 0.458350)">
            <path d="M0.99278,0.23286 C0.868511361,0.238103656 0.766993001,0.333894748 0.75455,0.45765 C0.28416,5.11405 0.39956,12.06151 0.75455,15.08673 C0.761909525,15.1528675 0.795333567,15.2133417 0.847419502,15.2547589 C0.899505437,15.2961761 0.965954567,15.3151182 1.03205,15.30739 C1.1689795,15.291012 1.26678561,15.1668471 1.25064,15.02989 C0.9127,12.14989 0.80988,5.47151 1.23724,0.87571 C3.43503,1.78788 4.50039,2.40147 6.0788,4.28791 C6.14355396,4.36502732 6.2482513,4.39577196 6.34442,4.36591 C7.63016,3.96433 8.92276,3.82518 10.22842,3.76284 C11.53408,3.82514 12.8267,3.96433 14.11242,4.36591 C14.2093316,4.39655728 14.3151515,4.36548611 14.38011,4.28731 C15.95852,2.40087 17.02388,1.7878 19.22167,0.87563 C19.64903,5.47143 19.54569,12.14981 19.20767,15.02981 C19.1999228,15.0956653 19.218656,15.1619008 19.2597478,15.2139431 C19.3008397,15.2659855 19.3609237,15.2995709 19.42678,15.30731 C19.4928728,15.3148842 19.5592588,15.2958036 19.6112434,15.2542917 C19.663228,15.2127799 19.6965235,15.1522607 19.70376,15.08613 C20.05875,12.06091 20.17415,5.11397 19.70376,0.45757 C19.6905077,0.325743265 19.5767212,0.227142336 19.44435,0.23278 C19.4160364,0.23460209 19.3882395,0.24123007 19.36215,0.25238 C16.91057,1.2483 15.74973,1.92993 14.10459,3.86353 C12.81136,3.48027 11.52357,3.32269 10.24901,3.26202 C10.2445441,3.26190027 10.2400759,3.26190027 10.23561,3.26202 C10.2270157,3.26157594 10.2184043,3.26157594 10.20981,3.26202 C8.93462,3.32272 7.64655,3.47983 6.35268,3.86353 C4.70757,1.92998 3.54822,1.24829 1.09667,0.25238 C1.07058055,0.24123007 1.04278361,0.23460209 1.01447,0.23278 C1.00724008,0.232544468 0.999999925,0.232544468 0.99277,0.23278 L0.99278,0.23286 Z M6.58985,6.06248 C6.08813,6.09678 5.58037,6.41604 5.37391,7.05156 C5.33175459,7.18252693 5.40334508,7.32294153 5.5341,7.36575 C5.66522614,7.40824293 5.80600587,7.33658488 5.84881,7.20556 C6.02249,6.67096 6.3849,6.52822 6.75677,6.56322 C7.12865,6.59822 7.47138,6.85462 7.54018,7.18024 C7.55380306,7.24525084 7.59273755,7.30216779 7.64838986,7.3384282 C7.70404218,7.3746886 7.77183675,7.38731122 7.83681,7.37351 C7.97136659,7.34417416 8.0568578,7.21154207 8.02801,7.07688 C7.90486,6.49404 7.36804,6.11817 6.80379,6.06506 C6.73329,6.05806 6.66153,6.05806 6.58985,6.06206 L6.58985,6.06248 Z M13.869,6.06248 C13.7973,6.05748 13.72559,6.05848 13.65505,6.06548 C13.0908,6.11858 12.55192,6.49446 12.42877,7.0773 C12.4149688,7.14227325 12.4275914,7.21006782 12.4638518,7.26572014 C12.5001122,7.32137245 12.5570292,7.36030694 12.62204,7.37393 C12.6870133,7.38773122 12.7548078,7.3751086 12.8104601,7.3388482 C12.8661125,7.30258779 12.9050469,7.24567084 12.91867,7.18066 C12.98747,6.85504 13.3302,6.59864 13.70208,6.56364 C14.07395,6.52864 14.43481,6.67138 14.60848,7.20598 C14.6290211,7.26927031 14.6739457,7.32176054 14.7333056,7.35182714 C14.7926656,7.38189375 14.8615626,7.38705573 14.92474,7.36617 C15.0554989,7.32336573 15.1270945,7.18294984 15.08494,7.05198 C14.87848,6.41646 14.37071,6.09718 13.869,6.06289 L13.869,6.06248 Z M6.79914,8.18379 C6.30197738,8.18384354 5.89896095,8.7744896 5.89894,9.50309 C5.89896095,10.2316904 6.30197738,10.8223365 6.79914,10.82239 C7.29630652,10.8223445 7.69932905,10.2316961 7.69935,9.50309 C7.69932905,8.77448388 7.29630652,8.18383545 6.79914,8.18379 L6.79914,8.18379 Z M13.65971,8.18379 C13.1625435,8.18383545 12.759521,8.77448388 12.7595,9.50309 C12.759521,10.2316961 13.1625435,10.8223445 13.65971,10.82239 C14.1568726,10.8223365 14.5598891,10.2316904 14.55991,9.50309 C14.5598891,8.7744896 14.1568726,8.18384354 13.65971,8.18379 L13.65971,8.18379 Z M10.22736,10.30149 C10.22736,10.30149 10.0076,10.30237 9.75503,10.33459 C9.62875,10.35069 9.49381,10.37309 9.36436,10.41259 C9.2349,10.45209 9.10729,10.49949 8.99901,10.61568 C8.83238,10.79421 8.86381,10.98012 8.89566,11.17016 C8.92746,11.3602 8.99896,11.56847 9.1065,11.77013 C9.21405,11.97179 9.35821,12.16626 9.54574,12.31686 C9.65982,12.40846 9.79612,12.47722 9.94469,12.51633 C9.78948,13.01819 9.38251,13.31481 8.88584,13.44599 C8.34479,13.58889 7.723,13.49799 7.37792,13.25634 C7.3235962,13.2176903 7.25608498,13.2023401 7.19039018,13.2137008 C7.12469537,13.2250615 7.06625969,13.2621918 7.02807,13.31684 C6.98961939,13.3714092 6.97458994,13.4390898 6.98632975,13.5048046 C6.99806956,13.5705193 7.03560343,13.6288095 7.09057,13.66669 C7.60194,14.02481 8.33902,14.10809 9.01241,13.93024 C9.4932,13.80325 9.94785,13.51928 10.22836,13.08016 C10.50942,13.51948 10.96546,13.80322 11.44637,13.93024 C12.11976,14.10809 12.85685,14.02474 13.36822,13.66669 C13.4230375,13.6288154 13.4604681,13.5706255 13.4722027,13.5050379 C13.4839372,13.4394502 13.4690047,13.3718918 13.43072,13.31736 C13.3926074,13.2626324 13.3342081,13.2254013 13.2685083,13.2139458 C13.2028086,13.2024904 13.1352552,13.2177603 13.08087,13.25636 C12.73579,13.49802 12.114,13.58891 11.57295,13.44601 C11.07612,13.31479 10.66739,13.01797 10.51203,12.51584 C10.66131,12.47674 10.79888,12.40855 10.91304,12.31688 C11.10058,12.16628 11.24269,11.9718 11.35023,11.77015 C11.45778,11.5685 11.53128,11.36022 11.56313,11.17018 C11.59503,10.98014 11.62643,10.79424 11.45978,10.6157 C11.35147,10.49965 11.22385,10.45207 11.09443,10.41261 C10.96501,10.37311 10.83002,10.35071 10.70375,10.33461 C10.45121,10.30241 10.22936,10.30149 10.22936,10.30149 L10.22736,10.30149 Z M10.22736,10.8012 L10.22936,10.8012 C10.23136,10.8012 10.42369,10.8032 10.63967,10.8307 C10.74817,10.8445 10.86078,10.8646 10.94818,10.8912 C11.00748,10.9093 11.04498,10.9287 11.06859,10.9424 C11.06946,10.9344 11.07359,10.9354 11.09439,10.9574 C11.09428,10.95727 11.07969,10.9484 11.06859,10.9424 C11.06659,10.9561 11.08229,11.0087 11.06912,11.08864 C11.04832,11.21287 10.99382,11.38034 10.91099,11.53565 C10.82819,11.69095 10.71732,11.83451 10.60041,11.92839 C10.48351,12.02229 10.36926,12.06652 10.24333,12.05913 L10.22933,12.05713 L10.21383,12.05913 C10.08791,12.06613 9.9752,12.02223 9.8583,11.92839 C9.74139,11.83449 9.63054,11.69095 9.54772,11.53565 C9.46492,11.38034 9.41041,11.21287 9.38959,11.08864 C9.37619,11.00844 9.39159,10.95605 9.39012,10.9424 C9.37892,10.9484 9.36442,10.9573 9.36432,10.9574 C9.38482,10.9354 9.38932,10.9349 9.39012,10.9424 C9.41372,10.9288 9.45122,10.9093 9.51053,10.8912 C9.59793,10.8646 9.71056,10.8425 9.81904,10.8287 C10.03497,10.8012 10.22544,10.8013 10.22728,10.8013 L10.22736,10.8012 Z M5.11604,11.16449 C5.05409578,11.168102 4.99570831,11.1946207 4.95223,11.23889 L4.20602,11.9851 C4.10844451,12.0827215 4.10844451,12.2409485 4.20602,12.33857 C4.30364153,12.4361455 4.46186847,12.4361455 4.55949,12.33857 L5.30569,11.59236 C5.40326549,11.4947385 5.40326549,11.3365115 5.30569,11.23889 C5.25590321,11.1882894 5.1869525,11.1612399 5.11604,11.16449 L5.11604,11.16449 Z M6.13975,11.16449 C6.07835071,11.1684777 6.02057836,11.1949677 5.97749,11.23889 L5.23128,11.9851 C5.13370451,12.0827215 5.13370451,12.2409485 5.23128,12.33857 C5.32890153,12.4361455 5.48712847,12.4361455 5.58475,12.33857 L6.33095,11.59236 C6.42852549,11.4947385 6.42852549,11.3365115 6.33095,11.23889 C6.28079711,11.187876 6.21119271,11.1607914 6.13975,11.16449 L6.13975,11.16449 Z M15.03792,11.16449 C14.9759723,11.1680996 14.9175808,11.1946185 14.8741,11.23889 L14.12789,11.9851 C14.0303145,12.0827215 14.0303145,12.2409485 14.12789,12.33857 C14.2255115,12.4361455 14.3837385,12.4361455 14.48136,12.33857 L15.22757,11.59236 C15.3251455,11.4947385 15.3251455,11.3365115 15.22757,11.23889 C15.1777832,11.1882894 15.1088325,11.1612399 15.03792,11.16449 L15.03792,11.16449 Z M16.06163,11.16449 C16.0002272,11.1684753 15.9424509,11.1949655 15.89936,11.23889 L15.15315,11.9851 C15.0555745,12.0827215 15.0555745,12.2409485 15.15315,12.33857 C15.2507715,12.4361455 15.4089985,12.4361455 15.50662,12.33857 L16.25283,11.59236 C16.3504055,11.4947385 16.3504055,11.3365115 16.25283,11.23889 C16.2026771,11.187876 16.1330727,11.1607914 16.06163,11.16449 L16.06163,11.16449 Z" id="Shape"></path>
        </g>
    </g>
</svg>